<?xml version="1.0" encoding="UTF-8"?>
<svg width="1540px" height="430px" viewBox="0 0 1540 430" version="1.1" xmlns="http://www.w3.org/2000/svg" xmlns:xlink="http://www.w3.org/1999/xlink">
    <!-- Generator: Sketch 52.4 (67378) - http://www.bohemiancoding.com/sketch -->
    <title>몰입캠프로고_화이트</title>
    <desc>Created with Sketch.</desc>
    <defs>
        <polygon id="path-1" points="0 429.178923 1537.41077 429.178923 1537.41077 0.458153846 0 0.458153846"></polygon>
    </defs>
    <g id="몰입캠프로고_화이트" stroke="none" stroke-width="1" fill="none" fill-rule="evenodd">
        <g id="logo" transform="translate(2.000000, 0.000000)">
            <path d="M114.780769,163.275077 L165.431538,163.275077 L165.431538,126.052769 L114.780769,126.052769 L114.780769,163.275077 Z M86.5361538,188.152 L193.676154,188.152 L193.676154,101.175846 L86.5361538,101.175846 L86.5361538,188.152 Z" id="Fill-1" fill="#FFFFFF"></path>
            <path d="M319.125231,144.654615 C319.125231,151.889231 316.400615,157.744615 310.790615,162.533846 C305.129846,167.373846 297.836,169.819231 289.103692,169.819231 C280.481385,169.819231 273.238308,167.348462 267.594462,162.466154 C261.976,157.600769 259.242923,151.779231 259.242923,144.654615 C259.242923,137.631538 261.959077,131.801538 267.543692,126.843077 L267.543692,126.834615 C273.128308,121.859231 280.379846,119.337692 289.103692,119.337692 C297.937538,119.337692 305.248308,121.833846 310.841385,126.758462 C316.417538,131.657692 319.125231,137.513077 319.125231,144.654615 M330.776769,109.073846 C320.005231,99.9353846 305.976,95.2984615 289.103692,95.2984615 C272.442923,95.2984615 258.481385,99.9269231 247.599846,109.065385 C236.591385,118.313846 231.006769,130.286923 231.006769,144.654615 C231.006769,158.929231 236.582923,170.876923 247.599846,180.167692 C258.481385,189.365385 272.442923,194.027692 289.103692,194.027692 C305.976,194.027692 319.996769,189.390769 330.776769,180.243846 C341.675231,170.995385 347.192154,159.022308 347.192154,144.654615 C347.192154,130.286923 341.675231,118.322308 330.776769,109.073846" id="Fill-2" fill="#FFFFFF"></path>
            <polygon id="Fill-4" fill="#FFFFFF" points="84.8633077 256.116769 165.425615 256.116769 165.425615 268.166 86.5302308 268.166 86.5302308 293.042923 165.425615 293.042923 165.425615 321.575231 193.670231 321.575231 193.670231 231.239846 84.8633077 231.239846"></polygon>
            <mask id="mask-2" fill="white">
                <use xlink:href="#path-1"></use>
            </mask>
            <g id="Clip-7"></g>
            <path d="M278.883846,295.012769 L299.318462,295.012769 L299.318462,257.790462 L278.883846,257.790462 L278.883846,295.012769 Z M232.176154,257.790462 L250.816923,257.790462 L250.816923,295.021231 L232.176154,295.021231 L232.176154,319.898154 L346.026154,319.898154 L346.026154,295.021231 L327.385385,295.021231 L327.385385,257.790462 L346.026154,257.790462 L346.026154,232.922 L232.176154,232.922 L232.176154,257.790462 Z" id="Fill-6" fill="#FFFFFF" mask="url(#mask-2)"></path>
            <path d="M32.1538462,397.016615 L396.558462,397.016615 L396.558462,32.612 L32.1538462,32.612 L32.1538462,397.016615 Z M0,429.178923 L428.720769,429.178923 L428.720769,0.458153846 L0,0.458153846 L0,429.178923 Z" id="Fill-8" fill="#FFFFFF" mask="url(#mask-2)"></path>
            <polygon id="Fill-9" fill="#FFFFFF" mask="url(#mask-2)" points="607.875231 284.666846 753.929846 284.666846 753.929846 223.794538 573.758308 223.794538 573.758308 248.899923 719.525231 248.899923 719.525231 262.556846 573.758308 262.556846 573.758308 323.437615 759.658308 323.437615 759.658308 298.315308 607.875231 298.315308"></polygon>
            <path d="M605.423077,141.351231 L722.268462,141.351231 L722.268462,118.420462 L605.423077,118.420462 L605.423077,141.351231 Z M680.764615,167.006615 L753.931538,167.006615 L753.931538,92.7566154 L573.76,92.7566154 L573.76,167.006615 L646.918462,167.006615 L646.918462,183.938154 L543.73,183.938154 L543.73,209.864308 L783.953077,209.864308 L783.953077,183.938154 L680.764615,183.938154 L680.764615,167.006615 Z" id="Fill-10" fill="#FFFFFF" mask="url(#mask-2)"></path>
            <path d="M876.226154,296.679692 L985.693077,296.679692 L985.693077,274.569692 L876.226154,274.569692 L876.226154,296.679692 Z M985.693077,247.814308 L876.234615,247.814308 L876.234615,222.971231 L843.471538,222.971231 L843.471538,323.435077 L1017.91462,323.435077 L1017.91462,222.971231 L985.693077,222.971231 L985.693077,247.814308 Z" id="Fill-11" fill="#FFFFFF" mask="url(#mask-2)"></path>
            <path d="M840.196077,148.447077 C840.196077,140.806308 843.513,134.248615 850.163769,128.790923 C856.797615,123.333231 864.396077,120.600154 872.950692,120.600154 C881.505308,120.600154 889.103769,123.282462 895.746077,128.655538 C902.396846,134.028615 905.713769,140.620154 905.713769,148.447077 C905.713769,156.274 902.396846,163.009385 895.746077,168.653231 C889.103769,174.297077 881.505308,177.114769 872.950692,177.114769 C864.396077,177.114769 856.797615,174.297077 850.163769,168.653231 C843.513,163.009385 840.196077,156.274 840.196077,148.447077 M918.406077,189.807077 C931.597615,179.340154 938.197615,165.742462 938.197615,148.988615 C938.197615,132.251692 931.597615,118.687846 918.406077,108.322462 C905.214538,97.9401538 890.059923,92.7532308 872.950692,92.7532308 C855.849923,92.7532308 840.695308,97.9401538 827.503769,108.322462 C814.303769,118.687846 807.703769,132.251692 807.703769,148.988615 C807.703769,165.911692 814.346077,179.568615 827.639154,189.942462 C840.923769,200.316308 856.027615,205.503231 872.950692,205.503231 C890.059923,205.503231 905.214538,200.274 918.406077,189.807077" id="Fill-12" fill="#FFFFFF" mask="url(#mask-2)"></path>
            <polygon id="Fill-13" fill="#FFFFFF" mask="url(#mask-2)" points="986.522308 212.326615 1018.18538 212.326615 1018.18538 85.9281538 986.522308 85.9281538"></polygon>
            <path d="M1136.39138,184.210615 C1147.67062,171.289846 1155.36215,156.871385 1159.466,140.938308 C1163.55292,125.013692 1165.78677,112.050615 1166.15062,102.040615 L1066.77831,102.040615 L1066.77831,128.787538 L1130.65446,128.787538 C1130.11292,131.706769 1129.42754,134.795231 1128.60677,138.078308 C1127.786,141.352923 1126.65215,144.720615 1125.19677,148.172923 C1120.45831,148.359077 1115.136,148.579077 1109.22985,148.849846 C1103.31523,149.129077 1098.81369,149.264462 1095.70831,149.264462 L1061.04985,149.535231 L1061.04985,173.828308 L1086.43446,173.286769 C1088.25369,173.286769 1091.62138,173.151385 1096.53754,172.880615 C1101.44523,172.609846 1105.98908,172.296769 1110.17754,171.924462 C1109.44985,172.652154 1108.77292,173.388308 1108.13831,174.107538 C1107.49523,174.843692 1106.72523,175.656 1105.81985,176.569846 C1098.72062,183.482923 1090.03062,189.947538 1079.74985,195.946769 C1069.46062,201.954462 1059.586,206.777538 1050.126,210.416 L1070.32369,231.434462 C1079.96985,227.254462 1090.74985,221.382154 1102.68062,213.826 C1114.59446,206.278308 1125.83138,196.403692 1136.39138,184.210615" id="Fill-14" fill="#FFFFFF" mask="url(#mask-2)"></path>
            <path d="M1125.74,296.408923 L1239.58154,296.408923 L1239.58154,260.921231 L1125.74,260.921231 L1125.74,296.408923 Z M1094.07692,323.435077 L1270.97385,323.435077 L1270.97385,233.886615 L1094.07692,233.886615 L1094.07692,323.435077 Z" id="Fill-15" fill="#FFFFFF" mask="url(#mask-2)"></path>
            <polygon id="Fill-16" fill="#FFFFFF" mask="url(#mask-2)" points="1240.94554 144.621615 1217.47323 144.621615 1217.47323 89.757 1186.89323 89.757 1186.89323 221.613154 1217.47323 221.613154 1217.47323 173.830846 1240.94554 173.830846 1240.94554 221.613154 1271.51708 221.613154 1271.51708 85.9323846 1240.94554 85.9323846"></polygon>
            <polygon id="Fill-17" fill="#FFFFFF" mask="url(#mask-2)" points="1323.64692 135.343538 1510.92615 135.343538 1510.92615 107.767385 1323.64692 107.767385"></polygon>
            <polygon id="Fill-18" fill="#FFFFFF" mask="url(#mask-2)" points="1516.65631 206.595615 1478.71477 206.595615 1484.44323 142.711 1451.68862 142.711 1446.23092 206.595615 1388.354 206.595615 1382.88785 142.711 1350.13323 142.711 1355.87015 206.595615 1317.64092 206.595615 1317.64092 234.163308 1516.65631 234.163308"></polygon>
            <polygon id="Fill-19" fill="#FFFFFF" mask="url(#mask-2)" points="1297.17923 296.679692 1537.41077 296.679692 1537.41077 269.103538 1297.17923 269.103538"></polygon>
        </g>
    </g>
</svg>